# WaveFront *.obj file (generated by CINEMA 4D)

mtllib ./strange_stone.mtl

v -0.5 0.06620594114065 0
v 0 0.06620594114065 0.5
v 0.5 0.06620594114065 0
v 0 0.06620594114065 -0.5
v 0 0.43633118271828 0
v 0 -0.50825363397598 0
v 0 0.30719238519669 0.3476245701313
v -0.30000001192093 0.06620594114065 0.30000001192093
v -0.3476245701313 0.30719238519669 0
v 0.3476245701313 0.30719238519669 0
v 0.30000001192093 0.06620594114065 0.30000001192093
v 0 0.30719238519669 -0.3476245701313
v 0.30000001192093 0.06620594114065 -0.30000001192093
v -0.30000001192093 0.06620594114065 -0.30000001192093
v -0.28968712687492 -0.29280784726143 0
v 0 -0.29280784726143 0.28968712687492
v 0.28968712687492 -0.29280784726143 0
v 0 -0.29280784726143 -0.28968712687492
# 18 vertices

vn -0.32886642217636 0.88526481389999 0.32886642217636
vn 0 0 0
vn -0.49090704321861 0.46559995412827 0.7363606095314
vn -0.56825947761536 0.59511542320251 0.56825947761536
vn -0.7363606095314 0.46559995412827 0.49090704321861
vn 0.32886642217636 0.88526481389999 0.32886642217636
vn 0.7363606095314 0.46559995412827 0.49090704321861
vn 0.56825947761536 0.59511542320251 0.56825947761536
vn 0.49090704321861 0.46559995412827 0.7363606095314
vn 0.32886642217636 0.88526481389999 -0.32886642217636
vn 0.49090704321861 0.46559995412827 -0.7363606095314
vn 0.56825947761536 0.59511542320251 -0.56825947761536
vn 0.7363606095314 0.46559995412827 -0.49090704321861
vn -0.32886642217636 0.88526481389999 -0.32886642217636
vn -0.7363606095314 0.46559995412827 -0.49090704321861
vn -0.56825947761536 0.59511542320251 -0.56825947761536
vn -0.49090704321861 0.46559995412827 -0.7363606095314
vn -0.51245450973511 -0.68904340267181 0.51245450973511
vn -0.74793362617493 -0.43814486265182 0.49862241744995
vn -0.60334116220474 -0.52149671316147 0.60334116220474
vn -0.49862241744995 -0.43814486265182 0.74793362617493
vn 0.51245450973511 -0.68904340267181 0.51245450973511
vn 0.49862241744995 -0.43814486265182 0.74793362617493
vn 0.60334116220474 -0.52149671316147 0.60334116220474
vn 0.74793362617493 -0.43814486265182 0.49862241744995
vn 0.51245450973511 -0.68904340267181 -0.51245450973511
vn 0.74793362617493 -0.43814486265182 -0.49862241744995
vn 0.60334116220474 -0.52149671316147 -0.60334116220474
vn 0.49862241744995 -0.43814486265182 -0.74793362617493
vn -0.51245450973511 -0.68904340267181 -0.51245450973511
vn -0.49862241744995 -0.43814486265182 -0.74793362617493
vn -0.60334116220474 -0.52149671316147 -0.60334116220474
vn -0.74793362617493 -0.43814486265182 -0.49862241744995
# 33 normals

vt 0.39896911382675 0.78077930212021 0
vt 0.40027791261673 0.7807754278183 0
vt 0.39961957931519 0.77964687347412 0
vt 0 1 0
vt 0.40158668160439 0.78077149391174 0
vt 0.40092837810516 0.77964293956757 0
vt 0.40027004480362 0.77851438522339 0
vt 0.39962741732597 0.78190785646439 0
vt 0.4002857208252 0.78303635120392 0
vt 0.40093621611595 0.78190392255783 0
vt 0.39831864833832 0.7819117307663 0
vt 0.39766815304756 0.78304421901703 0
vt 0.39897695183754 0.78304028511047 0
vt 0.39831471443176 0.77965080738068 0
vt 0.3989651799202 0.77851831912994 0
vt 0.39766031503677 0.7785222530365 0
vt 0.40093463659286 0.77959161996841 0
vt 0.39962583780289 0.77959549427032 0
vt 0.40028417110443 0.7807240486145 0
vt 0.39831703901291 0.77959942817688 0
vt 0.39897537231445 0.78072798252106 0
vt 0.39963364601135 0.78185647726059 0
vt 0.40158903598785 0.78072011470795 0
vt 0.40093851089478 0.78185260295868 0
vt 0.40224343538284 0.78184866905212 0
vt 0.40223950147629 0.77958768606186 0
vt 0.40289390087128 0.78071624040604 0
vt 0.40354436635971 0.7795837521553 0
vt 0.40027630329132 0.77846306562424 0
vt 0.39961796998978 0.77733451128006 0
vt 0.39896750450134 0.77846699953079 0
# 31 texture coordinates

g Платоново_тело
usemtl Материал
f 9/3/1 7/2/1 5/1/1
f 8/6/3 2/5/3 7/2/3
f 7/2/4 9/3/4 8/6/4
f 1/7/5 8/6/5 9/3/5
f 7/2/6 10/8/6 5/1/6
f 11/10/7 3/9/7 10/8/7
f 10/8/8 7/2/8 11/10/8
f 2/5/9 11/10/9 7/2/9
f 10/8/10 12/11/10 5/1/10
f 13/13/11 4/12/11 12/11/11
f 12/11/12 10/8/12 13/13/12
f 3/9/13 13/13/13 10/8/13
f 12/14/14 9/3/14 5/1/14
f 14/15/15 1/7/15 9/3/15
f 9/3/16 12/14/16 14/15/16
f 4/16/17 14/15/17 12/14/17
f 16/19/18 15/18/18 6/17/18
f 8/21/19 1/20/19 15/18/19
f 15/18/20 16/19/20 8/21/20
f 2/22/21 8/21/21 16/19/21
f 17/23/22 16/19/22 6/17/22
f 11/24/23 2/22/23 16/19/23
f 16/19/24 17/23/24 11/24/24
f 3/25/25 11/24/25 17/23/25
f 18/26/26 17/23/26 6/17/26
f 13/27/27 3/25/27 17/23/27
f 17/23/28 18/26/28 13/27/28
f 4/28/29 13/27/29 18/26/29
f 15/18/30 18/29/30 6/17/30
f 14/31/31 4/30/31 18/29/31
f 18/29/32 15/18/32 14/31/32
f 1/20/33 14/31/33 15/18/33

