# WaveFront *.obj file (generated by CINEMA 4D)

mtllib ./tomb.mtl

v 0.2165063470602 0.18396075069904 0.31710922718048
v 0 0.21241956949234 0
v 0.125 0.18396075069904 0.38845467567444
v 0 0.18396075069904 0.42500001192093
v -0.125 0.18396075069904 0.38845467567444
v -0.2165063470602 0.18396075069904 0.31710922718048
v -0.25 0.18396075069904 0
v -0.2165063470602 0.18396075069904 -0.31710922718048
v -0.125 0.18396075069904 -0.38845467567444
v 0 0.18396075069904 -0.42500001192093
v 0.125 0.18396075069904 -0.38845467567444
v 0.2165063470602 0.18396075069904 -0.31710922718048
v 0.25 0.18396075069904 0
v 0.375 0.10620978474617 0.54924929141998
v 0.2165063470602 0.10620978474617 0.67282325029373
v 0 0.10620978474617 0.73612159490585
v -0.2165063470602 0.10620978474617 0.67282325029373
v -0.375 0.10620978474617 0.54924929141998
v -0.43301269412041 0.10620978474617 0
v -0.375 0.10620978474617 -0.54924929141998
v -0.2165063470602 0.10620978474617 -0.67282325029373
v 0 0.10620978474617 -0.73612159490585
v 0.2165063470602 0.10620978474617 -0.67282325029373
v 0.375 0.10620978474617 -0.54924929141998
v 0.43301269412041 0.10620978474617 0
v 0.43301269412041 0 0.63421845436096
v 0.5 0 0
v 0.43301269412041 0 -0.63421845436096
v 0.25 0 -0.77690935134888
v 0 0 -0.85000002384186
v -0.25 0 -0.77690935134888
v -0.43301269412041 0 -0.63421845436096
v -0.5 0 0
v -0.43301269412041 0 0.63421845436096
v -0.25 0 0.77690935134888
v 0 0 0.85000002384186
v 0.25 0 0.77690935134888
# 37 vertices

vn 0.25464847683907 0.96703368425369 0.00000000094152
vn 0.18053661286831 0.98018300533295 0.08153435587883
vn -0.00000000155826 1 -0.00000000031165
vn 0 0 0
vn 0.07538067549467 0.98653346300125 0.14515320956707
vn 0 0.98789197206497 0.15514335036278
vn -0.07538067549467 0.98653346300125 0.14515322446823
vn -0.18053662776947 0.98018300533295 0.08153435587883
vn -0.25464847683907 0.96703368425369 -0.00000000094152
vn -0.18053661286831 0.98018300533295 -0.08153435587883
vn -0.07538067549467 0.98653346300125 -0.14515320956707
vn 0 0.98789197206497 -0.15514335036278
vn 0.07538067549467 0.98653346300125 -0.14515322446823
vn 0.18053662776947 0.98018300533295 -0.08153435587883
vn 0.49377030134201 0.83474510908127 0.24370375275612
vn 0.64759987592697 0.7619805932045 0.00000000391274
vn 0.22687312960625 0.86937856674194 0.43898689746857
vn 0 0.87971472740173 0.4755018055439
vn -0.22687312960625 0.86937856674194 0.43898692727089
vn -0.49377030134201 0.83474504947662 0.24370378255844
vn -0.64759987592697 0.76198053359985 -0.00000000293456
vn -0.49377030134201 0.83474510908127 -0.24370375275612
vn -0.22687312960625 0.86937856674194 -0.43898689746857
vn 0 0.87971472740173 -0.4755018055439
vn 0.22687312960625 0.86937856674194 -0.43898692727089
vn 0.49377030134201 0.83474504947662 -0.24370378255844
vn 0.84582155942917 0.53346598148346 0.00000000374013
vn 0.6784805059433 0.64777863025665 -0.34647795557976
vn 0.32170575857162 0.71252846717834 -0.62354522943497
vn 0 0.73130095005035 -0.68205487728119
vn -0.32170575857162 0.71252846717834 -0.62354522943497
vn -0.6784805059433 0.64777863025665 -0.34647795557976
vn -0.84582155942917 0.53346598148346 -0.00000000374013
vn -0.6784805059433 0.64777863025665 0.34647795557976
vn -0.32170575857162 0.71252846717834 0.62354522943497
vn 0 0.73130095005035 0.68205487728119
vn 0.32170575857162 0.71252846717834 0.62354522943497
vn 0.6784805059433 0.64777863025665 0.34647795557976
# 38 normals

vt 0.29195582866669 0.67995876073837 0
vt 0.29166632890701 0.67721819877625 0
vt 0.28979521989822 0.67995876073837 0
vt 0.32136756181717 0.34290874004364 0
vt 0.29087549448013 0.67660158872604 0
vt 0.28979521989822 0.67628574371338 0
vt 0.28871488571167 0.67660158872604 0
vt 0.28792405128479 0.67721819877625 0
vt 0.28763461112976 0.67995876073837 0
vt 0.28792405128479 0.68269938230515 0
vt 0.28871488571167 0.68331599235535 0
vt 0.28979521989822 0.68363177776337 0
vt 0.29087549448013 0.68331599235535 0
vt 0.29166632890701 0.68269938230515 0
vt 0.2930361032486 0.67521196603775 0
vt 0.29353749752045 0.67995876073837 0
vt 0.29166632890701 0.67414397001266 0
vt 0.28979521989822 0.67359691858292 0
vt 0.28792405128479 0.67414397001266 0
vt 0.28655433654785 0.67521196603775 0
vt 0.286052942276 0.67995876073837 0
vt 0.28655433654785 0.68470561504364 0
vt 0.28792405128479 0.68577361106873 0
vt 0.28979521989822 0.68632066249847 0
vt 0.29166632890701 0.68577361106873 0
vt 0.2930361032486 0.68470561504364 0
vt 0.29411637783051 0.67995876073837 0
vt 0.29353749752045 0.68543994426727 0
vt 0.29195582866669 0.68667310476303 0
vt 0.28979521989822 0.68730479478836 0
vt 0.28763461112976 0.68667310476303 0
vt 0.286052942276 0.68543994426727 0
vt 0.2854740023613 0.67995876073837 0
vt 0.286052942276 0.67447763681412 0
vt 0.28763461112976 0.67324441671371 0
vt 0.28979521989822 0.67261272668838 0
vt 0.29195582866669 0.67324441671371 0
vt 0.29353749752045 0.67447763681412 0
# 38 texture coordinates

g Сфера
usemtl Материал
f 2/3/3 1/2/2 13/1/1
f 2/3/3 3/5/5 1/2/2
f 2/3/3 4/6/6 3/5/5
f 2/3/3 5/7/7 4/6/6
f 2/3/3 6/8/8 5/7/7
f 2/3/3 7/9/9 6/8/8
f 2/3/3 8/10/10 7/9/9
f 2/3/3 9/11/11 8/10/10
f 2/3/3 10/12/12 9/11/11
f 2/3/3 11/13/13 10/12/12
f 2/3/3 12/14/14 11/13/13
f 2/3/3 13/1/1 12/14/14
f 25/16/16 13/1/1 1/2/2 14/15/15
f 14/15/15 1/2/2 3/5/5 15/17/17
f 15/17/17 3/5/5 4/6/6 16/18/18
f 16/18/18 4/6/6 5/7/7 17/19/19
f 17/19/19 5/7/7 6/8/8 18/20/20
f 18/20/20 6/8/8 7/9/9 19/21/21
f 19/21/21 7/9/9 8/10/10 20/22/22
f 20/22/22 8/10/10 9/11/11 21/23/23
f 21/23/23 9/11/11 10/12/12 22/24/24
f 22/24/24 10/12/12 11/13/13 23/25/25
f 23/25/25 11/13/13 12/14/14 24/26/26
f 24/26/26 12/14/14 13/1/1 25/16/16
f 28/28/28 24/26/26 25/16/16 27/27/27
f 29/29/29 23/25/25 24/26/26 28/28/28
f 30/30/30 22/24/24 23/25/25 29/29/29
f 31/31/31 21/23/23 22/24/24 30/30/30
f 32/32/32 20/22/22 21/23/23 31/31/31
f 33/33/33 19/21/21 20/22/22 32/32/32
f 34/34/34 18/20/20 19/21/21 33/33/33
f 35/35/35 17/19/19 18/20/20 34/34/34
f 36/36/36 16/18/18 17/19/19 35/35/35
f 37/37/37 15/17/17 16/18/18 36/36/36
f 26/38/38 14/15/15 15/17/17 37/37/37
f 27/27/27 25/16/16 14/15/15 26/38/38

